<svg width="512" height="512" viewBox="0 0 512 512" fill="none" xmlns="http://www.w3.org/2000/svg">
  <defs>
    <linearGradient id="outerLight" x1="108" y1="418" x2="406" y2="122" gradientUnits="userSpaceOnUse">
      <stop offset="0" stop-color="#1E6A52"/>
      <stop offset="0.52" stop-color="#3E9A77"/>
      <stop offset="1" stop-color="#7FC9A9"/>
    </linearGradient>
    <linearGradient id="innerLight" x1="188" y1="392" x2="338" y2="142" gradientUnits="userSpaceOnUse">
      <stop offset="0" stop-color="#CFEBDD"/>
      <stop offset="0.45" stop-color="#A7D8BE"/>
      <stop offset="1" stop-color="#78C79F"/>
    </linearGradient>
    <radialGradient id="glowLight" cx="0" cy="0" r="1" gradientUnits="userSpaceOnUse" gradientTransform="translate(258 220) rotate(90) scale(118 72)">
      <stop offset="0" stop-color="#FFFFFF" stop-opacity="0.72"/>
      <stop offset="0.55" stop-color="#F7FFF8" stop-opacity="0.28"/>
      <stop offset="1" stop-color="#F7FFF8" stop-opacity="0"/>
    </radialGradient>
    <filter id="softShadow" x="84" y="90" width="344" height="340" filterUnits="userSpaceOnUse" color-interpolation-filters="sRGB">
      <feDropShadow dx="0" dy="6" stdDeviation="10" flood-color="#0E3F31" flood-opacity="0.10"/>
    </filter>
  </defs>

  <g filter="url(#softShadow)">
    <path d="M257.7 448C327.6 363.5 379.6 302.2 379.6 218.9C379.6 159 345.4 115.5 294.8 94C309.9 124 309.6 159.8 291.5 194.6C272.9 230.5 237.8 257.9 207.7 290.9C177.8 323.7 160.4 362.7 168.5 408.5C184.4 395.9 205.3 390.5 225.2 395.1C237.2 397.8 248.5 404.3 257.7 448Z" fill="url(#outerLight)"/>
    <path d="M255.6 448C187.6 369.1 131.6 306.5 131.6 222.8C131.6 162.7 164.8 118.5 214.6 96.9C198.8 126.6 198.4 162.2 216.1 196.6C234.4 232.3 269.4 259.3 299.9 292.1C330.7 325.2 349.7 364.7 343.9 411.3C326.9 398.7 305.3 393.3 285 398C273 400.7 261.2 406.6 255.6 448Z" fill="url(#outerLight)"/>
    <path d="M253.7 393C299 340.5 334.5 296.8 334.5 240.3C334.5 198.6 312 169.4 278.8 155C288.4 175.9 288.1 200.2 276 223.8C263.8 247.5 240.8 265.5 221.3 287.4C202.4 308.7 190.3 333.9 195.4 363.7C208.4 355.9 224.7 353 239.5 356.6C246.2 358.2 251 361 253.7 393Z" fill="url(#innerLight)"/>
    <path d="M259.4 392.6C214.5 340.4 180 296.9 180 240.4C180 198.7 202.4 169.1 235.7 154.6C226.3 175.4 226.5 200 239 223.6C251.7 247.7 274.5 265.4 294.7 287.7C314 308.9 325.4 334.7 320.4 365.1C307.5 356.9 291.1 353.6 276 357.3C268.5 359.1 261.9 362.9 259.4 392.6Z" fill="url(#innerLight)"/>
    <path d="M256.3 122C225.3 175.1 214.5 216.7 221.8 261.5C229.1 305.9 250.2 340.3 256 375.9C261.2 340 281.9 305.5 289 260.7C296.3 214.5 287.5 173.8 256.3 122Z" fill="url(#glowLight)"/>
    <path d="M170.1 351.5C192.6 318.2 225.3 289.6 258 246.4C287.9 206.8 295.5 167.8 291.6 127.6C269.2 163.7 247 191.8 232.7 224.7C216.6 261.9 210.2 307.2 170.1 351.5Z" fill="#F8FFF9"/>
    <path d="M343.8 149.1C335.7 193.7 315.7 223.8 286.4 258.3C250.7 300.4 230.4 335.9 221 373.7C241.8 344 272.3 318.6 306.3 277.8C334.1 244.4 347 201.7 343.8 149.1Z" fill="#F8FFF9"/>
  </g>

  <g>
    <text x="257" y="188" text-anchor="middle" fill="#FDFEFC" font-size="46" font-weight="700" style="font-family: 'Amiri','Noto Naskh Arabic','Scheherazade New','Times New Roman',serif; paint-order: stroke; stroke: #5FA88C; stroke-width: 1px;">رَحْمَة</text>
    <text x="315" y="306" text-anchor="middle" fill="#FDFEFC" font-size="74" font-weight="700" style="font-family: 'Amiri','Noto Naskh Arabic','Scheherazade New','Times New Roman',serif;">الله</text>
  </g>
</svg>
