<svg width="1024" height="1024" viewBox="0 0 1024 1024" fill="none" xmlns="http://www.w3.org/2000/svg">
  <defs>
    <linearGradient id="leafLeft" x1="372" y1="282" x2="562" y2="703" gradientUnits="userSpaceOnUse">
      <stop offset="0" stop-color="#0E9A88"/>
      <stop offset="0.55" stop-color="#0B7E79"/>
      <stop offset="1" stop-color="#9CC873"/>
    </linearGradient>
    <linearGradient id="leafCenter" x1="597" y1="120" x2="500" y2="706" gradientUnits="userSpaceOnUse">
      <stop offset="0" stop-color="#183E45"/>
      <stop offset="0.55" stop-color="#0F5A60"/>
      <stop offset="1" stop-color="#0A7A73"/>
    </linearGradient>
    <linearGradient id="leafRight" x1="566" y1="286" x2="676" y2="669" gradientUnits="userSpaceOnUse">
      <stop offset="0" stop-color="#173E45"/>
      <stop offset="1" stop-color="#0B726B"/>
    </linearGradient>
    <linearGradient id="stemWarm" x1="510" y1="668" x2="510" y2="812" gradientUnits="userSpaceOnUse">
      <stop offset="0" stop-color="#CC7A15"/>
      <stop offset="0.45" stop-color="#F1A12A"/>
      <stop offset="1" stop-color="#D77B16"/>
    </linearGradient>
    <linearGradient id="petalWarmLeft" x1="396" y1="787" x2="472" y2="914" gradientUnits="userSpaceOnUse">
      <stop offset="0" stop-color="#B5511D"/>
      <stop offset="0.5" stop-color="#E9891B"/>
      <stop offset="1" stop-color="#F6C15A"/>
    </linearGradient>
    <linearGradient id="petalWarmMidLeft" x1="452" y1="772" x2="505" y2="916" gradientUnits="userSpaceOnUse">
      <stop offset="0" stop-color="#F8C25E"/>
      <stop offset="0.55" stop-color="#F0A632"/>
      <stop offset="1" stop-color="#E07A14"/>
    </linearGradient>
    <linearGradient id="petalCenter" x1="512" y1="776" x2="512" y2="920" gradientUnits="userSpaceOnUse">
      <stop offset="0" stop-color="#F96C18"/>
      <stop offset="0.35" stop-color="#F8AE2E"/>
      <stop offset="1" stop-color="#E88A10"/>
    </linearGradient>
    <linearGradient id="petalWarmMidRight" x1="575" y1="772" x2="523" y2="916" gradientUnits="userSpaceOnUse">
      <stop offset="0" stop-color="#CA5E17"/>
      <stop offset="0.45" stop-color="#EE9324"/>
      <stop offset="1" stop-color="#F6BE55"/>
    </linearGradient>
    <linearGradient id="petalGreenRight" x1="598" y1="796" x2="705" y2="908" gradientUnits="userSpaceOnUse">
      <stop offset="0" stop-color="#8CC55E"/>
      <stop offset="0.55" stop-color="#0E8A70"/>
      <stop offset="1" stop-color="#0B5B58"/>
    </linearGradient>
    <linearGradient id="petalGreenLeft" x1="320" y1="803" x2="445" y2="908" gradientUnits="userSpaceOnUse">
      <stop offset="0" stop-color="#0E7F75"/>
      <stop offset="0.55" stop-color="#13A089"/>
      <stop offset="1" stop-color="#E0C86C"/>
    </linearGradient>
    <linearGradient id="cradle" x1="418" y1="876" x2="633" y2="931" gradientUnits="userSpaceOnUse">
      <stop offset="0" stop-color="#2C4A47"/>
      <stop offset="1" stop-color="#183739"/>
    </linearGradient>
    <radialGradient id="glow" cx="0" cy="0" r="1" gradientUnits="userSpaceOnUse" gradientTransform="translate(514 802) rotate(90) scale(114 64)">
      <stop offset="0" stop-color="#FFE793" stop-opacity="0.9"/>
      <stop offset="0.45" stop-color="#FFC94A" stop-opacity="0.45"/>
      <stop offset="1" stop-color="#FFC94A" stop-opacity="0"/>
    </radialGradient>
  </defs>

  <path d="M515 666C504 623 458 574 431 541C390 491 399 417 453 337C454 430 462 481 482 541C498 588 508 628 515 666Z" fill="url(#leafLeft)"/>
  <path d="M516 669C526 586 518 499 507 430C494 346 512 227 548 119C573 253 558 389 548 487C540 557 529 619 516 669Z" fill="url(#leafCenter)"/>
  <path d="M518 668C559 611 576 559 585 515C603 427 589 355 553 304C621 356 646 434 630 529C620 588 580 620 518 668Z" fill="url(#leafRight)"/>

  <path d="M488 689C496 675 511 669 523 669C537 669 547 676 551 686C554 694 551 702 545 708C538 716 539 731 539 744C539 763 531 777 520 783C521 790 520 799 512 806C503 799 501 790 501 783C490 777 482 762 482 743C482 730 484 716 477 708C470 700 468 690 472 682C476 675 484 672 488 689Z" fill="url(#stemWarm)"/>
  <path d="M488 689C492 677 503 671 514 671C522 671 529 674 534 679" stroke="#A85F0F" stroke-width="5" stroke-linecap="round"/>

  <ellipse cx="514" cy="804" rx="84" ry="44" fill="url(#glow)"/>

  <path d="M377 811C409 819 438 831 462 853C440 863 419 881 409 896C377 877 354 852 347 847C357 848 368 846 377 811Z" fill="url(#petalGreenLeft)"/>
  <path d="M378 809C406 798 429 786 438 772C448 804 469 841 488 872C460 861 424 838 378 809Z" fill="url(#petalWarmLeft)"/>
  <path d="M439 767C464 780 486 817 501 882C478 867 457 851 436 808C434 795 436 781 439 767Z" fill="url(#petalWarmMidLeft)"/>
  <path d="M512 773C532 797 545 830 542 876C535 898 524 914 512 922C499 914 489 898 482 876C479 829 492 797 512 773Z" fill="url(#petalCenter)"/>
  <path d="M585 764C588 780 590 795 587 808C566 851 546 867 523 882C538 818 560 780 585 764Z" fill="url(#petalWarmMidRight)"/>
  <path d="M646 810C600 838 565 861 536 872C555 841 576 805 586 773C595 787 618 799 646 810Z" fill="url(#petalGreenRight)"/>
  <path d="M682 842C675 848 651 874 620 894C610 878 588 861 566 852C590 831 619 819 651 811C660 846 671 848 682 842Z" fill="#14494A"/>

  <path d="M404 902C439 901 473 882 513 882C553 882 585 899 628 891C603 907 571 919 540 937C529 944 522 950 513 950C504 950 497 944 486 937C457 920 431 909 404 902Z" fill="url(#cradle)"/>
  <path d="M451 859C468 874 489 883 512 883C536 883 559 874 577 859" stroke="#F1E0A0" stroke-width="3" stroke-linecap="round" opacity="0.75"/>
  <path d="M512 786C518 806 521 833 520 867" stroke="#F8E69C" stroke-width="2.5" stroke-linecap="round" opacity="0.55"/>
</svg>
