<svg xmlns="http://www.w3.org/2000/svg" viewBox="0 0 96 96" role="img" aria-label="Run Towards Mercy logo">
  <defs>
    <linearGradient id="flameSoft" x1="24" y1="10" x2="63" y2="78" gradientUnits="userSpaceOnUse">
      <stop offset="0" stop-color="#b8dca8" />
      <stop offset="0.45" stop-color="#7ec27f" />
      <stop offset="1" stop-color="#2e9b68" />
    </linearGradient>
    <linearGradient id="flameDeep" x1="70" y1="18" x2="55" y2="84" gradientUnits="userSpaceOnUse">
      <stop offset="0" stop-color="#0c6c49" />
      <stop offset="1" stop-color="#0a7a43" />
    </linearGradient>
    <linearGradient id="flameBase" x1="18" y1="42" x2="56" y2="88" gradientUnits="userSpaceOnUse">
      <stop offset="0" stop-color="#157353" />
      <stop offset="1" stop-color="#0b6a47" />
    </linearGradient>
    <radialGradient id="logoGlow" cx="0" cy="0" r="1" gradientTransform="translate(49 39) rotate(90) scale(16 16)" gradientUnits="userSpaceOnUse">
      <stop offset="0" stop-color="#f7f7f1" stop-opacity="0.98" />
      <stop offset="0.5" stop-color="#f1f2d9" stop-opacity="0.72" />
      <stop offset="1" stop-color="#ffffff" stop-opacity="0" />
    </radialGradient>
  </defs>

  <path
    d="M48 86C44 74 35 67 31 58C26 48 28 39 34 31C41 22 48 17 51 8C62 18 64 30 62 40C60 48 55 55 52 64C49 72 48 79 48 86Z"
    fill="url(#flameSoft)"
  />
  <path
    d="M67 20C74 29 77 39 76 50C75 61 71 71 63 82C62 69 59 61 54 54C61 46 67 35 67 20Z"
    fill="url(#flameDeep)"
  />
  <path
    d="M48 84C46 73 41 66 35 58C28 49 25 40 28 31C17 42 15 55 18 65C21 74 29 82 48 84Z"
    fill="url(#flameBase)"
  />

  <path
    d="M52 14C52 24 48 31 40 39C31 48 24 56 24 67C24 72 25 76 28 80C27 71 31 63 38 56C45 49 54 42 59 31C62 24 62 18 60 12C58 14 55 15 52 14Z"
    fill="#ffffff"
    fill-opacity="0.88"
  />
  <path
    d="M54 27C53 37 48 43 42 50C35 58 34 68 39 75C38 67 42 61 49 56C59 49 66 41 68 27C66 31 61 33 54 27Z"
    fill="#ffffff"
    fill-opacity="0.92"
  />
  <path
    d="M33 58C35 68 40 75 47 81C42 71 38 63 38 54C38 48 41 42 45 37C38 42 34 49 33 58Z"
    fill="#ffffff"
    fill-opacity="0.94"
  />

  <circle cx="49" cy="39" r="17" fill="url(#logoGlow)" />

  <text
    x="37"
    y="34"
    text-anchor="middle"
    font-family="'Noto Naskh Arabic','Amiri','Geeza Pro',serif"
    font-size="12"
    font-weight="700"
    fill="#ffffff"
    transform="rotate(-10 37 34)"
  >
    رحمة
  </text>
  <text
    x="59"
    y="61"
    text-anchor="middle"
    font-family="'Noto Naskh Arabic','Amiri','Geeza Pro',serif"
    font-size="25"
    font-weight="700"
    fill="#0c714d"
    transform="rotate(10 59 61)"
  >
    الله
  </text>
  <text
    x="32"
    y="67"
    text-anchor="middle"
    font-family="'Noto Naskh Arabic','Amiri','Geeza Pro',serif"
    font-size="10"
    font-weight="700"
    fill="#0c714d"
    transform="rotate(24 32 67)"
  >
    و
  </text>
</svg>
